<svg    
   xmlns:dc="http://purl.org/dc/elements/1.1/"
   xmlns:cc="http://creativecommons.org/ns#"
   xmlns:rdf="http://www.w3.org/1999/02/22-rdf-syntax-ns#"
   xmlns:svg="http://www.w3.org/2000/svg"
   xmlns="http://www.w3.org/2000/svg"
   xmlns:xlink="http://www.w3.org/1999/xlink"
   xml:space="preserve" 
   width="775" 
   height="775"
   style="fill:transparent;text-rendering:geometricPrecision; image-rendering:optimizeQuality; fill-rule:evenodd; clip-rule:evenodd"
    viewBox="0 0 775 775"
   shape-rendering="geometricPrecision"
>
<defs>

    <linearGradient id="red-black" x1="0%" y1="50%" x2="100%" y2="50%" gradientUnits="userSpaceOnUse">
        <stop offset="0%" style="stop-color:rgb(0,0,0);stop-opacity:1"/>
        <stop offset="100%" style="stop-color:rgb(0,0,0);stop-opacity:1"/>
    </linearGradient>
	
	<linearGradient id="black_s1" stroke-width="0" x1="0%" y1="0%" x2="0%" y2="100%" gradientUnits="userSpaceOnUse">
        <stop offset="0%" style="stop-color:rgb(0,0,0);stop-opacity:1"/>
        <stop offset="100%" style="stop-color:rgb(0,0,0);stop-opacity:1"/>
    </linearGradient>
		   
	<linearGradient id="bckcolor" x1="0%" y1="100%" x2="100%" y2="100%" gradientUnits="objectBoundingBox">
        <stop offset="0%" style="stop-color:rgb(255,255,255);stop-opacity:1"/>
        <stop offset="100%" style="stop-color:rgb(255,255,255);stop-opacity:1"/>
    </linearGradient>
	
</defs>
<filter id="dropshadow" height="130%">
  <feGaussianBlur in="SourceAlpha" stdDeviation="1"/>
  <feOffset dx="0" dy="0" result="offsetblur"/>
  <feMerge> 
    <feMergeNode/>
    <feMergeNode in="SourceGraphic"/>
  </feMerge>
</filter>

<filter id = "a2">
<feMorphology operator="erode" in="SourceGraphic" radius="6" />
</filter>

<filter id = "i1">
        
  <feGaussianBlur in="SourceAlpha" stdDeviation="1" result="blur"/>
      <feOffset in="blur" dx="0" dy="0" result="offsetBlur"/>
      <feSpecularLighting in="blur" surfaceScale="1" diffuseConstant = "1.2" specularConstant="1" 
                          specularExponent="20" lighting-color="#bbbbbb"  
                          result="specOut">
      <fePointLight x="10" y="10" z="100"/>
      </feSpecularLighting>
      <feComposite in="specOut" in2="SourceAlpha" operator="in" result="specOut"/>
      <feComposite in="SourceGraphic" in2="specOut" operator="arithmetic" 
                   k1="0" k2="1" k3="1" k4="0" result="litPaint"/><feMorphology result="lerrr" operator="erode" in="SourceGraphic" radius="1" /><feMorphology result="dill" operator="dilate" in="SourceGraphic" radius="1" /> <feMerge result="aa">
        
        
        <feMergeNode in="offsetBlur"/>
        <feMergeNode in="litPaint"/><feMergeNode in="lerrr"/> <feMergeNode in="dill"/>   </feMerge><feGaussianBlur in="SourceGraphic" stdDeviation="0.5" />   
</filter>   

    
 <filter id="lightMe1">
    <feDiffuseLighting in="SourceGraphic" result="light" lighting-color="transparent">
      <fePointLight x="150" y="60" z="20" />
    </feDiffuseLighting>

    <feComposite in="SourceGraphic" in2="light"
                 operator="arithmetic" k1="1" k2="0" k3="0" k4="0"/>
  </filter>




<rect x="0" y="0" width="775" height="775" style="fill:url(#bckcolor);fill-opacity:1" />
<g id="layer0" >

<g style="filter:url(#i1)" >
	<rect   style="fill:url(#red-black);opacity:1;stroke-width:0;" x="75" y="75" width="75" height="75" />
	<rect   style="fill:url(#red-black);opacity:1;stroke-width:0;" x="625" y="75" width="75" height="75" />
	<rect   style="fill:url(#red-black);opacity:1;stroke-width:0;" x="75" y="625" width="75" height="75" /></g><g><rect x="225" y="25" width="25" height="25" style="fill:url(#red-black);fill-opacity:1;stroke-width:0;" /><rect x="250" y="25" width="25" height="25" style="fill:url(#red-black);fill-opacity:1;stroke-width:0;" /><rect x="300" y="25" width="25" height="25" style="fill:url(#red-black);fill-opacity:1;stroke-width:0;" /><rect x="375" y="25" width="25" height="25" style="fill:url(#red-black);fill-opacity:1;stroke-width:0;" /><rect x="475" y="25" width="25" height="25" style="fill:url(#red-black);fill-opacity:1;stroke-width:0;" /></g><g><rect x="225" y="50" width="25" height="25" style="fill:url(#red-black);fill-opacity:1;stroke-width:0;" /><rect x="275" y="50" width="25" height="25" style="fill:url(#red-black);fill-opacity:1;stroke-width:0;" /><rect x="300" y="50" width="25" height="25" style="fill:url(#red-black);fill-opacity:1;stroke-width:0;" /><rect x="350" y="50" width="25" height="25" style="fill:url(#red-black);fill-opacity:1;stroke-width:0;" /><rect x="400" y="50" width="25" height="25" style="fill:url(#red-black);fill-opacity:1;stroke-width:0;" /><rect x="450" y="50" width="25" height="25" style="fill:url(#red-black);fill-opacity:1;stroke-width:0;" /><rect x="525" y="50" width="25" height="25" style="fill:url(#red-black);fill-opacity:1;stroke-width:0;" /></g><g><rect x="225" y="75" width="25" height="25" style="fill:url(#red-black);fill-opacity:1;stroke-width:0;" /><rect x="275" y="75" width="25" height="25" style="fill:url(#red-black);fill-opacity:1;stroke-width:0;" /><rect x="325" y="75" width="25" height="25" style="fill:url(#red-black);fill-opacity:1;stroke-width:0;" /><rect x="350" y="75" width="25" height="25" style="fill:url(#red-black);fill-opacity:1;stroke-width:0;" /><rect x="425" y="75" width="25" height="25" style="fill:url(#red-black);fill-opacity:1;stroke-width:0;" /><rect x="525" y="75" width="25" height="25" style="fill:url(#red-black);fill-opacity:1;stroke-width:0;" /></g><g><rect x="250" y="100" width="25" height="25" style="fill:url(#red-black);fill-opacity:1;stroke-width:0;" /><rect x="275" y="100" width="25" height="25" style="fill:url(#red-black);fill-opacity:1;stroke-width:0;" /><rect x="400" y="100" width="25" height="25" style="fill:url(#red-black);fill-opacity:1;stroke-width:0;" /><rect x="425" y="100" width="25" height="25" style="fill:url(#red-black);fill-opacity:1;stroke-width:0;" /><rect x="450" y="100" width="25" height="25" style="fill:url(#red-black);fill-opacity:1;stroke-width:0;" /><rect x="475" y="100" width="25" height="25" style="fill:url(#red-black);fill-opacity:1;stroke-width:0;" /><rect x="525" y="100" width="25" height="25" style="fill:url(#red-black);fill-opacity:1;stroke-width:0;" /></g><g><rect x="275" y="125" width="25" height="25" style="fill:url(#red-black);fill-opacity:1;stroke-width:0;" /><rect x="300" y="125" width="25" height="25" style="fill:url(#red-black);fill-opacity:1;stroke-width:0;" /><rect x="350" y="125" width="25" height="25" style="fill:url(#red-black);fill-opacity:1;stroke-width:0;" /><rect x="425" y="125" width="25" height="25" style="fill:url(#red-black);fill-opacity:1;stroke-width:0;" /><rect x="450" y="125" width="25" height="25" style="fill:url(#red-black);fill-opacity:1;stroke-width:0;" /><rect x="475" y="125" width="25" height="25" style="fill:url(#red-black);fill-opacity:1;stroke-width:0;" /><rect x="500" y="125" width="25" height="25" style="fill:url(#red-black);fill-opacity:1;stroke-width:0;" /><rect x="525" y="125" width="25" height="25" style="fill:url(#red-black);fill-opacity:1;stroke-width:0;" /></g><g><rect x="225" y="150" width="25" height="25" style="fill:url(#red-black);fill-opacity:1;stroke-width:0;" /><rect x="275" y="150" width="25" height="25" style="fill:url(#red-black);fill-opacity:1;stroke-width:0;" /><rect x="325" y="150" width="25" height="25" style="fill:url(#red-black);fill-opacity:1;stroke-width:0;" /><rect x="375" y="150" width="25" height="25" style="fill:url(#red-black);fill-opacity:1;stroke-width:0;" /><rect x="425" y="150" width="25" height="25" style="fill:url(#red-black);fill-opacity:1;stroke-width:0;" /><rect x="450" y="150" width="25" height="25" style="fill:url(#red-black);fill-opacity:1;stroke-width:0;" /><rect x="525" y="150" width="25" height="25" style="fill:url(#red-black);fill-opacity:1;stroke-width:0;" /></g><g><rect x="225" y="175" width="25" height="25" style="fill:url(#red-black);fill-opacity:1;stroke-width:0;" /><rect x="275" y="175" width="25" height="25" style="fill:url(#red-black);fill-opacity:1;stroke-width:0;" /><rect x="325" y="175" width="25" height="25" style="fill:url(#red-black);fill-opacity:1;stroke-width:0;" /><rect x="375" y="175" width="25" height="25" style="fill:url(#red-black);fill-opacity:1;stroke-width:0;" /><rect x="425" y="175" width="25" height="25" style="fill:url(#red-black);fill-opacity:1;stroke-width:0;" /><rect x="475" y="175" width="25" height="25" style="fill:url(#red-black);fill-opacity:1;stroke-width:0;" /><rect x="525" y="175" width="25" height="25" style="fill:url(#red-black);fill-opacity:1;stroke-width:0;" /></g><g><rect x="225" y="200" width="25" height="25" style="fill:url(#red-black);fill-opacity:1;stroke-width:0;" /><rect x="250" y="200" width="25" height="25" style="fill:url(#red-black);fill-opacity:1;stroke-width:0;" /><rect x="275" y="200" width="25" height="25" style="fill:url(#red-black);fill-opacity:1;stroke-width:0;" /><rect x="325" y="200" width="25" height="25" style="fill:url(#red-black);fill-opacity:1;stroke-width:0;" /><rect x="375" y="200" width="25" height="25" style="fill:url(#red-black);fill-opacity:1;stroke-width:0;" /><rect x="450" y="200" width="25" height="25" style="fill:url(#red-black);fill-opacity:1;stroke-width:0;" /><rect x="475" y="200" width="25" height="25" style="fill:url(#red-black);fill-opacity:1;stroke-width:0;" /><rect x="500" y="200" width="25" height="25" style="fill:url(#red-black);fill-opacity:1;stroke-width:0;" /><rect x="525" y="200" width="25" height="25" style="fill:url(#red-black);fill-opacity:1;stroke-width:0;" /></g><g><rect x="75" y="225" width="25" height="25" style="fill:url(#red-black);fill-opacity:1;stroke-width:0;" /><rect x="100" y="225" width="25" height="25" style="fill:url(#red-black);fill-opacity:1;stroke-width:0;" /><rect x="125" y="225" width="25" height="25" style="fill:url(#red-black);fill-opacity:1;stroke-width:0;" /><rect x="175" y="225" width="25" height="25" style="fill:url(#red-black);fill-opacity:1;stroke-width:0;" /><rect x="225" y="225" width="25" height="25" style="fill:url(#red-black);fill-opacity:1;stroke-width:0;" /><rect x="250" y="225" width="25" height="25" style="fill:url(#red-black);fill-opacity:1;stroke-width:0;" /><rect x="275" y="225" width="25" height="25" style="fill:url(#red-black);fill-opacity:1;stroke-width:0;" /><rect x="300" y="225" width="25" height="25" style="fill:url(#red-black);fill-opacity:1;stroke-width:0;" /><rect x="325" y="225" width="25" height="25" style="fill:url(#red-black);fill-opacity:1;stroke-width:0;" /><rect x="525" y="225" width="25" height="25" style="fill:url(#red-black);fill-opacity:1;stroke-width:0;" /><rect x="550" y="225" width="25" height="25" style="fill:url(#red-black);fill-opacity:1;stroke-width:0;" /><rect x="575" y="225" width="25" height="25" style="fill:url(#red-black);fill-opacity:1;stroke-width:0;" /><rect x="600" y="225" width="25" height="25" style="fill:url(#red-black);fill-opacity:1;stroke-width:0;" /><rect x="675" y="225" width="25" height="25" style="fill:url(#red-black);fill-opacity:1;stroke-width:0;" /><rect x="700" y="225" width="25" height="25" style="fill:url(#red-black);fill-opacity:1;stroke-width:0;" /><rect x="725" y="225" width="25" height="25" style="fill:url(#red-black);fill-opacity:1;stroke-width:0;" /></g><g><rect x="50" y="250" width="25" height="25" style="fill:url(#red-black);fill-opacity:1;stroke-width:0;" /><rect x="125" y="250" width="25" height="25" style="fill:url(#red-black);fill-opacity:1;stroke-width:0;" /><rect x="150" y="250" width="25" height="25" style="fill:url(#red-black);fill-opacity:1;stroke-width:0;" /><rect x="200" y="250" width="25" height="25" style="fill:url(#red-black);fill-opacity:1;stroke-width:0;" /><rect x="225" y="250" width="25" height="25" style="fill:url(#red-black);fill-opacity:1;stroke-width:0;" /><rect x="250" y="250" width="25" height="25" style="fill:url(#red-black);fill-opacity:1;stroke-width:0;" /><rect x="300" y="250" width="25" height="25" style="fill:url(#red-black);fill-opacity:1;stroke-width:0;" /><rect x="325" y="250" width="25" height="25" style="fill:url(#red-black);fill-opacity:1;stroke-width:0;" /><rect x="350" y="250" width="25" height="25" style="fill:url(#red-black);fill-opacity:1;stroke-width:0;" /><rect x="375" y="250" width="25" height="25" style="fill:url(#red-black);fill-opacity:1;stroke-width:0;" /><rect x="400" y="250" width="25" height="25" style="fill:url(#red-black);fill-opacity:1;stroke-width:0;" /><rect x="425" y="250" width="25" height="25" style="fill:url(#red-black);fill-opacity:1;stroke-width:0;" /><rect x="475" y="250" width="25" height="25" style="fill:url(#red-black);fill-opacity:1;stroke-width:0;" /><rect x="500" y="250" width="25" height="25" style="fill:url(#red-black);fill-opacity:1;stroke-width:0;" /><rect x="525" y="250" width="25" height="25" style="fill:url(#red-black);fill-opacity:1;stroke-width:0;" /><rect x="550" y="250" width="25" height="25" style="fill:url(#red-black);fill-opacity:1;stroke-width:0;" /><rect x="575" y="250" width="25" height="25" style="fill:url(#red-black);fill-opacity:1;stroke-width:0;" /><rect x="600" y="250" width="25" height="25" style="fill:url(#red-black);fill-opacity:1;stroke-width:0;" /><rect x="625" y="250" width="25" height="25" style="fill:url(#red-black);fill-opacity:1;stroke-width:0;" /><rect x="650" y="250" width="25" height="25" style="fill:url(#red-black);fill-opacity:1;stroke-width:0;" /><rect x="675" y="250" width="25" height="25" style="fill:url(#red-black);fill-opacity:1;stroke-width:0;" /><rect x="725" y="250" width="25" height="25" style="fill:url(#red-black);fill-opacity:1;stroke-width:0;" /></g><g><rect x="25" y="275" width="25" height="25" style="fill:url(#red-black);fill-opacity:1;stroke-width:0;" /><rect x="50" y="275" width="25" height="25" style="fill:url(#red-black);fill-opacity:1;stroke-width:0;" /><rect x="75" y="275" width="25" height="25" style="fill:url(#red-black);fill-opacity:1;stroke-width:0;" /><rect x="100" y="275" width="25" height="25" style="fill:url(#red-black);fill-opacity:1;stroke-width:0;" /><rect x="125" y="275" width="25" height="25" style="fill:url(#red-black);fill-opacity:1;stroke-width:0;" /><rect x="175" y="275" width="25" height="25" style="fill:url(#red-black);fill-opacity:1;stroke-width:0;" /><rect x="200" y="275" width="25" height="25" style="fill:url(#red-black);fill-opacity:1;stroke-width:0;" /><rect x="225" y="275" width="25" height="25" style="fill:url(#red-black);fill-opacity:1;stroke-width:0;" /><rect x="275" y="275" width="25" height="25" style="fill:url(#red-black);fill-opacity:1;stroke-width:0;" /><rect x="350" y="275" width="25" height="25" style="fill:url(#red-black);fill-opacity:1;stroke-width:0;" /><rect x="375" y="275" width="25" height="25" style="fill:url(#red-black);fill-opacity:1;stroke-width:0;" /><rect x="425" y="275" width="25" height="25" style="fill:url(#red-black);fill-opacity:1;stroke-width:0;" /><rect x="550" y="275" width="25" height="25" style="fill:url(#red-black);fill-opacity:1;stroke-width:0;" /><rect x="575" y="275" width="25" height="25" style="fill:url(#red-black);fill-opacity:1;stroke-width:0;" /><rect x="600" y="275" width="25" height="25" style="fill:url(#red-black);fill-opacity:1;stroke-width:0;" /><rect x="625" y="275" width="25" height="25" style="fill:url(#red-black);fill-opacity:1;stroke-width:0;" /></g><g><rect x="25" y="300" width="25" height="25" style="fill:url(#red-black);fill-opacity:1;stroke-width:0;" /><rect x="50" y="300" width="25" height="25" style="fill:url(#red-black);fill-opacity:1;stroke-width:0;" /><rect x="75" y="300" width="25" height="25" style="fill:url(#red-black);fill-opacity:1;stroke-width:0;" /><rect x="200" y="300" width="25" height="25" style="fill:url(#red-black);fill-opacity:1;stroke-width:0;" /><rect x="225" y="300" width="25" height="25" style="fill:url(#red-black);fill-opacity:1;stroke-width:0;" /><rect x="275" y="300" width="25" height="25" style="fill:url(#red-black);fill-opacity:1;stroke-width:0;" /><rect x="325" y="300" width="25" height="25" style="fill:url(#red-black);fill-opacity:1;stroke-width:0;" /><rect x="400" y="300" width="25" height="25" style="fill:url(#red-black);fill-opacity:1;stroke-width:0;" /><rect x="425" y="300" width="25" height="25" style="fill:url(#red-black);fill-opacity:1;stroke-width:0;" /><rect x="550" y="300" width="25" height="25" style="fill:url(#red-black);fill-opacity:1;stroke-width:0;" /><rect x="575" y="300" width="25" height="25" style="fill:url(#red-black);fill-opacity:1;stroke-width:0;" /><rect x="625" y="300" width="25" height="25" style="fill:url(#red-black);fill-opacity:1;stroke-width:0;" /><rect x="650" y="300" width="25" height="25" style="fill:url(#red-black);fill-opacity:1;stroke-width:0;" /><rect x="700" y="300" width="25" height="25" style="fill:url(#red-black);fill-opacity:1;stroke-width:0;" /></g><g><rect x="75" y="325" width="25" height="25" style="fill:url(#red-black);fill-opacity:1;stroke-width:0;" /><rect x="125" y="325" width="25" height="25" style="fill:url(#red-black);fill-opacity:1;stroke-width:0;" /><rect x="175" y="325" width="25" height="25" style="fill:url(#red-black);fill-opacity:1;stroke-width:0;" /><rect x="200" y="325" width="25" height="25" style="fill:url(#red-black);fill-opacity:1;stroke-width:0;" /><rect x="225" y="325" width="25" height="25" style="fill:url(#red-black);fill-opacity:1;stroke-width:0;" /><rect x="325" y="325" width="25" height="25" style="fill:url(#red-black);fill-opacity:1;stroke-width:0;" /><rect x="425" y="325" width="25" height="25" style="fill:url(#red-black);fill-opacity:1;stroke-width:0;" /><rect x="500" y="325" width="25" height="25" style="fill:url(#red-black);fill-opacity:1;stroke-width:0;" /><rect x="525" y="325" width="25" height="25" style="fill:url(#red-black);fill-opacity:1;stroke-width:0;" /><rect x="550" y="325" width="25" height="25" style="fill:url(#red-black);fill-opacity:1;stroke-width:0;" /><rect x="600" y="325" width="25" height="25" style="fill:url(#red-black);fill-opacity:1;stroke-width:0;" /><rect x="675" y="325" width="25" height="25" style="fill:url(#red-black);fill-opacity:1;stroke-width:0;" /><rect x="700" y="325" width="25" height="25" style="fill:url(#red-black);fill-opacity:1;stroke-width:0;" /><rect x="725" y="325" width="25" height="25" style="fill:url(#red-black);fill-opacity:1;stroke-width:0;" /></g><g><rect x="25" y="350" width="25" height="25" style="fill:url(#red-black);fill-opacity:1;stroke-width:0;" /><rect x="50" y="350" width="25" height="25" style="fill:url(#red-black);fill-opacity:1;stroke-width:0;" /><rect x="125" y="350" width="25" height="25" style="fill:url(#red-black);fill-opacity:1;stroke-width:0;" /><rect x="150" y="350" width="25" height="25" style="fill:url(#red-black);fill-opacity:1;stroke-width:0;" /><rect x="200" y="350" width="25" height="25" style="fill:url(#red-black);fill-opacity:1;stroke-width:0;" /><rect x="225" y="350" width="25" height="25" style="fill:url(#red-black);fill-opacity:1;stroke-width:0;" /><rect x="375" y="350" width="25" height="25" style="fill:url(#red-black);fill-opacity:1;stroke-width:0;" /><rect x="475" y="350" width="25" height="25" style="fill:url(#red-black);fill-opacity:1;stroke-width:0;" /><rect x="500" y="350" width="25" height="25" style="fill:url(#red-black);fill-opacity:1;stroke-width:0;" /><rect x="525" y="350" width="25" height="25" style="fill:url(#red-black);fill-opacity:1;stroke-width:0;" /><rect x="550" y="350" width="25" height="25" style="fill:url(#red-black);fill-opacity:1;stroke-width:0;" /><rect x="575" y="350" width="25" height="25" style="fill:url(#red-black);fill-opacity:1;stroke-width:0;" /><rect x="625" y="350" width="25" height="25" style="fill:url(#red-black);fill-opacity:1;stroke-width:0;" /><rect x="650" y="350" width="25" height="25" style="fill:url(#red-black);fill-opacity:1;stroke-width:0;" /><rect x="700" y="350" width="25" height="25" style="fill:url(#red-black);fill-opacity:1;stroke-width:0;" /><rect x="725" y="350" width="25" height="25" style="fill:url(#red-black);fill-opacity:1;stroke-width:0;" /></g><g><rect x="25" y="375" width="25" height="25" style="fill:url(#red-black);fill-opacity:1;stroke-width:0;" /><rect x="50" y="375" width="25" height="25" style="fill:url(#red-black);fill-opacity:1;stroke-width:0;" /><rect x="100" y="375" width="25" height="25" style="fill:url(#red-black);fill-opacity:1;stroke-width:0;" /><rect x="150" y="375" width="25" height="25" style="fill:url(#red-black);fill-opacity:1;stroke-width:0;" /><rect x="175" y="375" width="25" height="25" style="fill:url(#red-black);fill-opacity:1;stroke-width:0;" /><rect x="225" y="375" width="25" height="25" style="fill:url(#red-black);fill-opacity:1;stroke-width:0;" /><rect x="250" y="375" width="25" height="25" style="fill:url(#red-black);fill-opacity:1;stroke-width:0;" /><rect x="275" y="375" width="25" height="25" style="fill:url(#red-black);fill-opacity:1;stroke-width:0;" /><rect x="300" y="375" width="25" height="25" style="fill:url(#red-black);fill-opacity:1;stroke-width:0;" /><rect x="350" y="375" width="25" height="25" style="fill:url(#red-black);fill-opacity:1;stroke-width:0;" /><rect x="375" y="375" width="25" height="25" style="fill:url(#red-black);fill-opacity:1;stroke-width:0;" /><rect x="400" y="375" width="25" height="25" style="fill:url(#red-black);fill-opacity:1;stroke-width:0;" /><rect x="450" y="375" width="25" height="25" style="fill:url(#red-black);fill-opacity:1;stroke-width:0;" /><rect x="525" y="375" width="25" height="25" style="fill:url(#red-black);fill-opacity:1;stroke-width:0;" /><rect x="600" y="375" width="25" height="25" style="fill:url(#red-black);fill-opacity:1;stroke-width:0;" /></g><g><rect x="25" y="400" width="25" height="25" style="fill:url(#red-black);fill-opacity:1;stroke-width:0;" /><rect x="50" y="400" width="25" height="25" style="fill:url(#red-black);fill-opacity:1;stroke-width:0;" /><rect x="250" y="400" width="25" height="25" style="fill:url(#red-black);fill-opacity:1;stroke-width:0;" /><rect x="275" y="400" width="25" height="25" style="fill:url(#red-black);fill-opacity:1;stroke-width:0;" /><rect x="300" y="400" width="25" height="25" style="fill:url(#red-black);fill-opacity:1;stroke-width:0;" /><rect x="375" y="400" width="25" height="25" style="fill:url(#red-black);fill-opacity:1;stroke-width:0;" /><rect x="450" y="400" width="25" height="25" style="fill:url(#red-black);fill-opacity:1;stroke-width:0;" /><rect x="475" y="400" width="25" height="25" style="fill:url(#red-black);fill-opacity:1;stroke-width:0;" /><rect x="500" y="400" width="25" height="25" style="fill:url(#red-black);fill-opacity:1;stroke-width:0;" /><rect x="525" y="400" width="25" height="25" style="fill:url(#red-black);fill-opacity:1;stroke-width:0;" /><rect x="575" y="400" width="25" height="25" style="fill:url(#red-black);fill-opacity:1;stroke-width:0;" /><rect x="625" y="400" width="25" height="25" style="fill:url(#red-black);fill-opacity:1;stroke-width:0;" /><rect x="650" y="400" width="25" height="25" style="fill:url(#red-black);fill-opacity:1;stroke-width:0;" /><rect x="700" y="400" width="25" height="25" style="fill:url(#red-black);fill-opacity:1;stroke-width:0;" /><rect x="725" y="400" width="25" height="25" style="fill:url(#red-black);fill-opacity:1;stroke-width:0;" /></g><g><rect x="25" y="425" width="25" height="25" style="fill:url(#red-black);fill-opacity:1;stroke-width:0;" /><rect x="75" y="425" width="25" height="25" style="fill:url(#red-black);fill-opacity:1;stroke-width:0;" /><rect x="100" y="425" width="25" height="25" style="fill:url(#red-black);fill-opacity:1;stroke-width:0;" /><rect x="125" y="425" width="25" height="25" style="fill:url(#red-black);fill-opacity:1;stroke-width:0;" /><rect x="150" y="425" width="25" height="25" style="fill:url(#red-black);fill-opacity:1;stroke-width:0;" /><rect x="175" y="425" width="25" height="25" style="fill:url(#red-black);fill-opacity:1;stroke-width:0;" /><rect x="225" y="425" width="25" height="25" style="fill:url(#red-black);fill-opacity:1;stroke-width:0;" /><rect x="275" y="425" width="25" height="25" style="fill:url(#red-black);fill-opacity:1;stroke-width:0;" /><rect x="300" y="425" width="25" height="25" style="fill:url(#red-black);fill-opacity:1;stroke-width:0;" /><rect x="325" y="425" width="25" height="25" style="fill:url(#red-black);fill-opacity:1;stroke-width:0;" /><rect x="350" y="425" width="25" height="25" style="fill:url(#red-black);fill-opacity:1;stroke-width:0;" /><rect x="425" y="425" width="25" height="25" style="fill:url(#red-black);fill-opacity:1;stroke-width:0;" /><rect x="450" y="425" width="25" height="25" style="fill:url(#red-black);fill-opacity:1;stroke-width:0;" /><rect x="475" y="425" width="25" height="25" style="fill:url(#red-black);fill-opacity:1;stroke-width:0;" /><rect x="650" y="425" width="25" height="25" style="fill:url(#red-black);fill-opacity:1;stroke-width:0;" /><rect x="675" y="425" width="25" height="25" style="fill:url(#red-black);fill-opacity:1;stroke-width:0;" /><rect x="700" y="425" width="25" height="25" style="fill:url(#red-black);fill-opacity:1;stroke-width:0;" /></g><g><rect x="25" y="450" width="25" height="25" style="fill:url(#red-black);fill-opacity:1;stroke-width:0;" /><rect x="100" y="450" width="25" height="25" style="fill:url(#red-black);fill-opacity:1;stroke-width:0;" /><rect x="125" y="450" width="25" height="25" style="fill:url(#red-black);fill-opacity:1;stroke-width:0;" /><rect x="150" y="450" width="25" height="25" style="fill:url(#red-black);fill-opacity:1;stroke-width:0;" /><rect x="300" y="450" width="25" height="25" style="fill:url(#red-black);fill-opacity:1;stroke-width:0;" /><rect x="325" y="450" width="25" height="25" style="fill:url(#red-black);fill-opacity:1;stroke-width:0;" /><rect x="350" y="450" width="25" height="25" style="fill:url(#red-black);fill-opacity:1;stroke-width:0;" /><rect x="400" y="450" width="25" height="25" style="fill:url(#red-black);fill-opacity:1;stroke-width:0;" /><rect x="425" y="450" width="25" height="25" style="fill:url(#red-black);fill-opacity:1;stroke-width:0;" /><rect x="500" y="450" width="25" height="25" style="fill:url(#red-black);fill-opacity:1;stroke-width:0;" /><rect x="525" y="450" width="25" height="25" style="fill:url(#red-black);fill-opacity:1;stroke-width:0;" /><rect x="550" y="450" width="25" height="25" style="fill:url(#red-black);fill-opacity:1;stroke-width:0;" /><rect x="575" y="450" width="25" height="25" style="fill:url(#red-black);fill-opacity:1;stroke-width:0;" /><rect x="600" y="450" width="25" height="25" style="fill:url(#red-black);fill-opacity:1;stroke-width:0;" /><rect x="625" y="450" width="25" height="25" style="fill:url(#red-black);fill-opacity:1;stroke-width:0;" /><rect x="650" y="450" width="25" height="25" style="fill:url(#red-black);fill-opacity:1;stroke-width:0;" /><rect x="675" y="450" width="25" height="25" style="fill:url(#red-black);fill-opacity:1;stroke-width:0;" /><rect x="700" y="450" width="25" height="25" style="fill:url(#red-black);fill-opacity:1;stroke-width:0;" /><rect x="725" y="450" width="25" height="25" style="fill:url(#red-black);fill-opacity:1;stroke-width:0;" /></g><g><rect x="25" y="475" width="25" height="25" style="fill:url(#red-black);fill-opacity:1;stroke-width:0;" /><rect x="75" y="475" width="25" height="25" style="fill:url(#red-black);fill-opacity:1;stroke-width:0;" /><rect x="100" y="475" width="25" height="25" style="fill:url(#red-black);fill-opacity:1;stroke-width:0;" /><rect x="175" y="475" width="25" height="25" style="fill:url(#red-black);fill-opacity:1;stroke-width:0;" /><rect x="200" y="475" width="25" height="25" style="fill:url(#red-black);fill-opacity:1;stroke-width:0;" /><rect x="250" y="475" width="25" height="25" style="fill:url(#red-black);fill-opacity:1;stroke-width:0;" /><rect x="300" y="475" width="25" height="25" style="fill:url(#red-black);fill-opacity:1;stroke-width:0;" /><rect x="400" y="475" width="25" height="25" style="fill:url(#red-black);fill-opacity:1;stroke-width:0;" /><rect x="575" y="475" width="25" height="25" style="fill:url(#red-black);fill-opacity:1;stroke-width:0;" /><rect x="600" y="475" width="25" height="25" style="fill:url(#red-black);fill-opacity:1;stroke-width:0;" /><rect x="650" y="475" width="25" height="25" style="fill:url(#red-black);fill-opacity:1;stroke-width:0;" /><rect x="675" y="475" width="25" height="25" style="fill:url(#red-black);fill-opacity:1;stroke-width:0;" /></g><g><rect x="25" y="500" width="25" height="25" style="fill:url(#red-black);fill-opacity:1;stroke-width:0;" /><rect x="100" y="500" width="25" height="25" style="fill:url(#red-black);fill-opacity:1;stroke-width:0;" /><rect x="150" y="500" width="25" height="25" style="fill:url(#red-black);fill-opacity:1;stroke-width:0;" /><rect x="250" y="500" width="25" height="25" style="fill:url(#red-black);fill-opacity:1;stroke-width:0;" /><rect x="300" y="500" width="25" height="25" style="fill:url(#red-black);fill-opacity:1;stroke-width:0;" /><rect x="325" y="500" width="25" height="25" style="fill:url(#red-black);fill-opacity:1;stroke-width:0;" /><rect x="425" y="500" width="25" height="25" style="fill:url(#red-black);fill-opacity:1;stroke-width:0;" /><rect x="450" y="500" width="25" height="25" style="fill:url(#red-black);fill-opacity:1;stroke-width:0;" /><rect x="500" y="500" width="25" height="25" style="fill:url(#red-black);fill-opacity:1;stroke-width:0;" /><rect x="525" y="500" width="25" height="25" style="fill:url(#red-black);fill-opacity:1;stroke-width:0;" /><rect x="575" y="500" width="25" height="25" style="fill:url(#red-black);fill-opacity:1;stroke-width:0;" /><rect x="650" y="500" width="25" height="25" style="fill:url(#red-black);fill-opacity:1;stroke-width:0;" /><rect x="725" y="500" width="25" height="25" style="fill:url(#red-black);fill-opacity:1;stroke-width:0;" /></g><g><rect x="25" y="525" width="25" height="25" style="fill:url(#red-black);fill-opacity:1;stroke-width:0;" /><rect x="100" y="525" width="25" height="25" style="fill:url(#red-black);fill-opacity:1;stroke-width:0;" /><rect x="150" y="525" width="25" height="25" style="fill:url(#red-black);fill-opacity:1;stroke-width:0;" /><rect x="175" y="525" width="25" height="25" style="fill:url(#red-black);fill-opacity:1;stroke-width:0;" /><rect x="250" y="525" width="25" height="25" style="fill:url(#red-black);fill-opacity:1;stroke-width:0;" /><rect x="325" y="525" width="25" height="25" style="fill:url(#red-black);fill-opacity:1;stroke-width:0;" /><rect x="450" y="525" width="25" height="25" style="fill:url(#red-black);fill-opacity:1;stroke-width:0;" /><rect x="500" y="525" width="25" height="25" style="fill:url(#red-black);fill-opacity:1;stroke-width:0;" /><rect x="525" y="525" width="25" height="25" style="fill:url(#red-black);fill-opacity:1;stroke-width:0;" /><rect x="550" y="525" width="25" height="25" style="fill:url(#red-black);fill-opacity:1;stroke-width:0;" /><rect x="575" y="525" width="25" height="25" style="fill:url(#red-black);fill-opacity:1;stroke-width:0;" /><rect x="600" y="525" width="25" height="25" style="fill:url(#red-black);fill-opacity:1;stroke-width:0;" /><rect x="625" y="525" width="25" height="25" style="fill:url(#red-black);fill-opacity:1;stroke-width:0;" /><rect x="675" y="525" width="25" height="25" style="fill:url(#red-black);fill-opacity:1;stroke-width:0;" /></g><g><rect x="225" y="550" width="25" height="25" style="fill:url(#red-black);fill-opacity:1;stroke-width:0;" /><rect x="250" y="550" width="25" height="25" style="fill:url(#red-black);fill-opacity:1;stroke-width:0;" /><rect x="275" y="550" width="25" height="25" style="fill:url(#red-black);fill-opacity:1;stroke-width:0;" /><rect x="300" y="550" width="25" height="25" style="fill:url(#red-black);fill-opacity:1;stroke-width:0;" /><rect x="325" y="550" width="25" height="25" style="fill:url(#red-black);fill-opacity:1;stroke-width:0;" /><rect x="350" y="550" width="25" height="25" style="fill:url(#red-black);fill-opacity:1;stroke-width:0;" /><rect x="375" y="550" width="25" height="25" style="fill:url(#red-black);fill-opacity:1;stroke-width:0;" /><rect x="400" y="550" width="25" height="25" style="fill:url(#red-black);fill-opacity:1;stroke-width:0;" /><rect x="450" y="550" width="25" height="25" style="fill:url(#red-black);fill-opacity:1;stroke-width:0;" /><rect x="500" y="550" width="25" height="25" style="fill:url(#red-black);fill-opacity:1;stroke-width:0;" /><rect x="525" y="550" width="25" height="25" style="fill:url(#red-black);fill-opacity:1;stroke-width:0;" /><rect x="625" y="550" width="25" height="25" style="fill:url(#red-black);fill-opacity:1;stroke-width:0;" /><rect x="650" y="550" width="25" height="25" style="fill:url(#red-black);fill-opacity:1;stroke-width:0;" /><rect x="700" y="550" width="25" height="25" style="fill:url(#red-black);fill-opacity:1;stroke-width:0;" /><rect x="725" y="550" width="25" height="25" style="fill:url(#red-black);fill-opacity:1;stroke-width:0;" /></g><g><rect x="275" y="575" width="25" height="25" style="fill:url(#red-black);fill-opacity:1;stroke-width:0;" /><rect x="325" y="575" width="25" height="25" style="fill:url(#red-black);fill-opacity:1;stroke-width:0;" /><rect x="350" y="575" width="25" height="25" style="fill:url(#red-black);fill-opacity:1;stroke-width:0;" /><rect x="425" y="575" width="25" height="25" style="fill:url(#red-black);fill-opacity:1;stroke-width:0;" /><rect x="475" y="575" width="25" height="25" style="fill:url(#red-black);fill-opacity:1;stroke-width:0;" /><rect x="500" y="575" width="25" height="25" style="fill:url(#red-black);fill-opacity:1;stroke-width:0;" /><rect x="525" y="575" width="25" height="25" style="fill:url(#red-black);fill-opacity:1;stroke-width:0;" /><rect x="575" y="575" width="25" height="25" style="fill:url(#red-black);fill-opacity:1;stroke-width:0;" /><rect x="625" y="575" width="25" height="25" style="fill:url(#red-black);fill-opacity:1;stroke-width:0;" /></g><g><rect x="250" y="600" width="25" height="25" style="fill:url(#red-black);fill-opacity:1;stroke-width:0;" /><rect x="275" y="600" width="25" height="25" style="fill:url(#red-black);fill-opacity:1;stroke-width:0;" /><rect x="300" y="600" width="25" height="25" style="fill:url(#red-black);fill-opacity:1;stroke-width:0;" /><rect x="325" y="600" width="25" height="25" style="fill:url(#red-black);fill-opacity:1;stroke-width:0;" /><rect x="350" y="600" width="25" height="25" style="fill:url(#red-black);fill-opacity:1;stroke-width:0;" /><rect x="400" y="600" width="25" height="25" style="fill:url(#red-black);fill-opacity:1;stroke-width:0;" /><rect x="425" y="600" width="25" height="25" style="fill:url(#red-black);fill-opacity:1;stroke-width:0;" /><rect x="500" y="600" width="25" height="25" style="fill:url(#red-black);fill-opacity:1;stroke-width:0;" /><rect x="525" y="600" width="25" height="25" style="fill:url(#red-black);fill-opacity:1;stroke-width:0;" /><rect x="625" y="600" width="25" height="25" style="fill:url(#red-black);fill-opacity:1;stroke-width:0;" /><rect x="650" y="600" width="25" height="25" style="fill:url(#red-black);fill-opacity:1;stroke-width:0;" /><rect x="700" y="600" width="25" height="25" style="fill:url(#red-black);fill-opacity:1;stroke-width:0;" /><rect x="725" y="600" width="25" height="25" style="fill:url(#red-black);fill-opacity:1;stroke-width:0;" /></g><g><rect x="225" y="625" width="25" height="25" style="fill:url(#red-black);fill-opacity:1;stroke-width:0;" /><rect x="250" y="625" width="25" height="25" style="fill:url(#red-black);fill-opacity:1;stroke-width:0;" /><rect x="275" y="625" width="25" height="25" style="fill:url(#red-black);fill-opacity:1;stroke-width:0;" /><rect x="350" y="625" width="25" height="25" style="fill:url(#red-black);fill-opacity:1;stroke-width:0;" /><rect x="375" y="625" width="25" height="25" style="fill:url(#red-black);fill-opacity:1;stroke-width:0;" /><rect x="400" y="625" width="25" height="25" style="fill:url(#red-black);fill-opacity:1;stroke-width:0;" /><rect x="425" y="625" width="25" height="25" style="fill:url(#red-black);fill-opacity:1;stroke-width:0;" /><rect x="525" y="625" width="25" height="25" style="fill:url(#red-black);fill-opacity:1;stroke-width:0;" /><rect x="550" y="625" width="25" height="25" style="fill:url(#red-black);fill-opacity:1;stroke-width:0;" /><rect x="575" y="625" width="25" height="25" style="fill:url(#red-black);fill-opacity:1;stroke-width:0;" /><rect x="600" y="625" width="25" height="25" style="fill:url(#red-black);fill-opacity:1;stroke-width:0;" /><rect x="625" y="625" width="25" height="25" style="fill:url(#red-black);fill-opacity:1;stroke-width:0;" /><rect x="650" y="625" width="25" height="25" style="fill:url(#red-black);fill-opacity:1;stroke-width:0;" /><rect x="675" y="625" width="25" height="25" style="fill:url(#red-black);fill-opacity:1;stroke-width:0;" /><rect x="725" y="625" width="25" height="25" style="fill:url(#red-black);fill-opacity:1;stroke-width:0;" /></g><g><rect x="225" y="650" width="25" height="25" style="fill:url(#red-black);fill-opacity:1;stroke-width:0;" /><rect x="250" y="650" width="25" height="25" style="fill:url(#red-black);fill-opacity:1;stroke-width:0;" /><rect x="325" y="650" width="25" height="25" style="fill:url(#red-black);fill-opacity:1;stroke-width:0;" /><rect x="375" y="650" width="25" height="25" style="fill:url(#red-black);fill-opacity:1;stroke-width:0;" /><rect x="450" y="650" width="25" height="25" style="fill:url(#red-black);fill-opacity:1;stroke-width:0;" /><rect x="475" y="650" width="25" height="25" style="fill:url(#red-black);fill-opacity:1;stroke-width:0;" /><rect x="500" y="650" width="25" height="25" style="fill:url(#red-black);fill-opacity:1;stroke-width:0;" /><rect x="525" y="650" width="25" height="25" style="fill:url(#red-black);fill-opacity:1;stroke-width:0;" /><rect x="550" y="650" width="25" height="25" style="fill:url(#red-black);fill-opacity:1;stroke-width:0;" /><rect x="600" y="650" width="25" height="25" style="fill:url(#red-black);fill-opacity:1;stroke-width:0;" /></g><g><rect x="225" y="675" width="25" height="25" style="fill:url(#red-black);fill-opacity:1;stroke-width:0;" /><rect x="250" y="675" width="25" height="25" style="fill:url(#red-black);fill-opacity:1;stroke-width:0;" /><rect x="325" y="675" width="25" height="25" style="fill:url(#red-black);fill-opacity:1;stroke-width:0;" /><rect x="350" y="675" width="25" height="25" style="fill:url(#red-black);fill-opacity:1;stroke-width:0;" /><rect x="375" y="675" width="25" height="25" style="fill:url(#red-black);fill-opacity:1;stroke-width:0;" /><rect x="400" y="675" width="25" height="25" style="fill:url(#red-black);fill-opacity:1;stroke-width:0;" /><rect x="425" y="675" width="25" height="25" style="fill:url(#red-black);fill-opacity:1;stroke-width:0;" /><rect x="500" y="675" width="25" height="25" style="fill:url(#red-black);fill-opacity:1;stroke-width:0;" /><rect x="525" y="675" width="25" height="25" style="fill:url(#red-black);fill-opacity:1;stroke-width:0;" /><rect x="550" y="675" width="25" height="25" style="fill:url(#red-black);fill-opacity:1;stroke-width:0;" /><rect x="575" y="675" width="25" height="25" style="fill:url(#red-black);fill-opacity:1;stroke-width:0;" /><rect x="600" y="675" width="25" height="25" style="fill:url(#red-black);fill-opacity:1;stroke-width:0;" /><rect x="625" y="675" width="25" height="25" style="fill:url(#red-black);fill-opacity:1;stroke-width:0;" /><rect x="650" y="675" width="25" height="25" style="fill:url(#red-black);fill-opacity:1;stroke-width:0;" /><rect x="675" y="675" width="25" height="25" style="fill:url(#red-black);fill-opacity:1;stroke-width:0;" /><rect x="700" y="675" width="25" height="25" style="fill:url(#red-black);fill-opacity:1;stroke-width:0;" /></g><g><rect x="275" y="700" width="25" height="25" style="fill:url(#red-black);fill-opacity:1;stroke-width:0;" /><rect x="325" y="700" width="25" height="25" style="fill:url(#red-black);fill-opacity:1;stroke-width:0;" /><rect x="350" y="700" width="25" height="25" style="fill:url(#red-black);fill-opacity:1;stroke-width:0;" /><rect x="400" y="700" width="25" height="25" style="fill:url(#red-black);fill-opacity:1;stroke-width:0;" /><rect x="425" y="700" width="25" height="25" style="fill:url(#red-black);fill-opacity:1;stroke-width:0;" /><rect x="450" y="700" width="25" height="25" style="fill:url(#red-black);fill-opacity:1;stroke-width:0;" /><rect x="475" y="700" width="25" height="25" style="fill:url(#red-black);fill-opacity:1;stroke-width:0;" /><rect x="525" y="700" width="25" height="25" style="fill:url(#red-black);fill-opacity:1;stroke-width:0;" /><rect x="625" y="700" width="25" height="25" style="fill:url(#red-black);fill-opacity:1;stroke-width:0;" /><rect x="650" y="700" width="25" height="25" style="fill:url(#red-black);fill-opacity:1;stroke-width:0;" /><rect x="700" y="700" width="25" height="25" style="fill:url(#red-black);fill-opacity:1;stroke-width:0;" /></g><g><rect x="250" y="725" width="25" height="25" style="fill:url(#red-black);fill-opacity:1;stroke-width:0;" /><rect x="325" y="725" width="25" height="25" style="fill:url(#red-black);fill-opacity:1;stroke-width:0;" /><rect x="350" y="725" width="25" height="25" style="fill:url(#red-black);fill-opacity:1;stroke-width:0;" /><rect x="375" y="725" width="25" height="25" style="fill:url(#red-black);fill-opacity:1;stroke-width:0;" /><rect x="425" y="725" width="25" height="25" style="fill:url(#red-black);fill-opacity:1;stroke-width:0;" /><rect x="475" y="725" width="25" height="25" style="fill:url(#red-black);fill-opacity:1;stroke-width:0;" /><rect x="625" y="725" width="25" height="25" style="fill:url(#red-black);fill-opacity:1;stroke-width:0;" /><rect x="675" y="725" width="25" height="25" style="fill:url(#red-black);fill-opacity:1;stroke-width:0;" />
<polygon points="37.5,37.5 37.5,187.5 187.5,187.5 187.5,37.5" style="fill:none;stroke:url(#red-black);stroke-width:22;opacity:1;" />



<polygon points="587.5,37.5 587.5,187.5 737.5,187.5 737.5,37.5" style="fill:none;stroke:url(#red-black);stroke-width:22;opacity:1;" />



<polygon points="37.5,587.5 37.5,737.5 187.5,737.5 187.5,587.5" style="fill:none;stroke:url(#red-black);stroke-width:22;opacity:1;" />


</g></g></svg> 